<svg width="220" height="220" viewBox="0 0 220 220" fill="none" xmlns="http://www.w3.org/2000/svg" role="img" aria-labelledby="title desc">
  <title id="title">Lark Loom woven wing mark</title>
  <desc id="desc">An abstract woven wing made from interlaced blue, cyan, green, and white ribbon shapes.</desc>
  <defs>
    <linearGradient id="cyanRibbon" x1="24" y1="60" x2="128" y2="88" gradientUnits="userSpaceOnUse">
      <stop offset="0" stop-color="#38DCE1"/>
      <stop offset="0.62" stop-color="#25C6DD"/>
      <stop offset="1" stop-color="#1AAFEA"/>
    </linearGradient>
    <linearGradient id="topBlue" x1="80" y1="76" x2="190" y2="35" gradientUnits="userSpaceOnUse">
      <stop offset="0" stop-color="#0861E7"/>
      <stop offset="0.5" stop-color="#0B7DFF"/>
      <stop offset="1" stop-color="#1595FF"/>
    </linearGradient>
    <linearGradient id="rightBlue" x1="99" y1="88" x2="181" y2="133" gradientUnits="userSpaceOnUse">
      <stop offset="0" stop-color="#064FCB"/>
      <stop offset="0.58" stop-color="#0869EF"/>
      <stop offset="1" stop-color="#0D7CFF"/>
    </linearGradient>
    <linearGradient id="midCyanRibbon" x1="94" y1="126" x2="195" y2="97" gradientUnits="userSpaceOnUse">
      <stop offset="0" stop-color="#0FA5DA"/>
      <stop offset="0.44" stop-color="#22C7E2"/>
      <stop offset="1" stop-color="#37DBE8"/>
    </linearGradient>
    <linearGradient id="greenRibbon" x1="24" y1="160" x2="184" y2="158" gradientUnits="userSpaceOnUse">
      <stop offset="0" stop-color="#1FCB91"/>
      <stop offset="0.5" stop-color="#24D97B"/>
      <stop offset="1" stop-color="#0DBA62"/>
    </linearGradient>
    <linearGradient id="foldShadow" x1="92" y1="136" x2="151" y2="153" gradientUnits="userSpaceOnUse">
      <stop offset="0" stop-color="#076B52" stop-opacity="0.42"/>
      <stop offset="1" stop-color="#076B52" stop-opacity="0"/>
    </linearGradient>
    <linearGradient id="whiteFace" x1="77" y1="68" x2="110" y2="137" gradientUnits="userSpaceOnUse">
      <stop offset="0" stop-color="#FFFFFF"/>
      <stop offset="1" stop-color="#F8FEFF"/>
    </linearGradient>
    <filter id="softDepth" x="-8" y="0" width="244" height="212" filterUnits="userSpaceOnUse" color-interpolation-filters="sRGB">
      <feDropShadow dx="0" dy="8" stdDeviation="11" flood-color="#0E3470" flood-opacity="0.08"/>
    </filter>
  </defs>

  <g filter="url(#softDepth)">
    <path d="M20.6 65.5C18.9 52.8 30.1 47.5 40 56.4C55.5 70.3 77 73.7 99.5 78.5C115.3 81.9 124.5 91.9 126.7 105C103.8 112.3 78.9 108.7 55.2 100.4C43.5 96.3 32.5 95.9 24.7 99C20.9 88.8 21.8 74.2 20.6 65.5Z" fill="url(#cyanRibbon)"/>

    <path d="M77.4 88.7C82.2 55.2 114.2 39 146.4 34.3C168.8 31 186.6 23.8 202.5 14.2C210.2 9.6 216.1 15.5 214.1 24.6C207.8 53.4 187.8 72.2 154.1 77.6C130 81.5 111.9 85.5 98 99.1C88.5 108.5 75.6 101.5 77.4 88.7Z" fill="url(#topBlue)"/>

    <path d="M100 88.5C116.4 91.5 128.9 101.3 137.1 115.1C145 128.6 161 130.8 177.4 132.8C167.4 148.4 141.9 150.9 119.9 139.3C101.7 129.8 94 109.3 100 88.5Z" fill="url(#rightBlue)"/>

    <path d="M100.5 124.6C120.7 111.8 150.8 111.3 187 87.2C194.1 82.5 200.5 87.1 198.7 95.6C193.3 122.3 171.4 139.4 139.2 144.2C124.8 146.4 112.6 151.6 101.4 162.1C92.5 170.4 84.3 148.1 90 137C92.6 132 95.8 127.6 100.5 124.6Z" fill="url(#midCyanRibbon)"/>

    <path d="M20.7 160.6C27 137.9 54.7 127.7 91.2 130.2C111.5 131.6 126 138.5 141.8 145.6C158 153 173.2 148.7 184.2 136.4C191.6 128.2 202.2 134.9 199.8 146.2C194.3 172.4 165.9 188.8 130.7 184.4C109.5 181.7 94.2 173.1 76 168C56.1 162.4 39.3 168.5 25.8 184.8C18.9 193.2 16.9 174.3 20.7 160.6Z" fill="url(#greenRibbon)"/>

    <path d="M76.9 130.2C96.1 130.2 120.9 137.5 142.2 145.8C129.4 154.1 105.2 153.2 84.7 143.9C78.5 141.1 75.8 136 76.9 130.2Z" fill="url(#foldShadow)"/>

    <path d="M77.3 81.3C85.5 65.6 107.5 68.4 110.5 86.5V140.2C123.4 144.8 136.7 148.7 151.1 148.3C151.8 164.3 141.4 174.2 123.4 174.2C108.2 174.2 92.3 169.5 77.3 164.5V81.3Z" fill="url(#whiteFace)"/>
    <path d="M77.3 81.3C85.2 66.4 105.6 68.1 110.1 84.1C99.7 82.6 89.9 78.9 80.4 74.6C78.6 76.7 77.6 78.9 77.3 81.3Z" fill="#FFFFFF" opacity="0.82"/>
  </g>
</svg>
